/* XPM */
static char *_50fcb5464664efdc79fc183db2f5b87LOiwXmmzLUNhfkFC[] = {
/* columns rows colors chars-per-pixel */
"60 60 100 2 ",
"   c #1F150F",
".  c #21150F",
"X  c #251710",
"o  c #261810",
"O  c #2D1A11",
"+  c #331C11",
"@  c #391E12",
"#  c #3A2113",
"$  c #442414",
"%  c #482715",
"&  c #4B2916",
"*  c #532E17",
"=  c #552F18",
"-  c #563017",
";  c #563018",
":  c #5C3319",
">  c #623719",
",  c #633819",
"<  c #6B3D1D",
"1  c #6B411F",
"2  c #71411F",
"3  c #6E4221",
"4  c #734323",
"5  c #7A4623",
"6  c #7C4924",
"7  c #675A2C",
"8  c #775A2E",
"9  c #765D30",
"0  c #795C31",
"q  c #6C6131",
"w  c #756836",
"e  c #7D6A37",
"r  c #7C6D3A",
"t  c #6D763C",
"y  c #7C713C",
"u  c #74793F",
"i  c #7B7B47",
"p  c #854E27",
"a  c #884C27",
"s  c #864E28",
"d  c #884E29",
"f  c #875129",
"g  c #885029",
"h  c #855A2E",
"j  c #817341",
"k  c #648A48",
"l  c #748445",
"z  c #738F4D",
"x  c #65934D",
"c  c #6E944E",
"v  c #71924D",
"b  c #70924E",
"n  c #72924E",
"m  c #788F51",
"M  c #6E9750",
"N  c #669950",
"B  c #689850",
"V  c #6D9D52",
"C  c #6C9F54",
"Z  c #719550",
"A  c #7A9357",
"S  c #749957",
"D  c #6DA154",
"F  c #6DA155",
"G  c #6CA356",
"H  c #63AA5A",
"J  c #68AA5A",
"K  c #65B25E",
"L  c #64B35F",
"P  c #65B35F",
"I  c #79A263",
"U  c #63B460",
"Y  c #63B560",
"T  c #63B561",
"R  c #63B661",
"E  c #62B761",
"W  c #64B662",
"Q  c #64B663",
"!  c #65B764",
"~  c #62B862",
"^  c #62BA63",
"/  c #64B863",
"(  c #67B867",
")  c #64BB66",
"_  c #68B867",
"`  c #69B868",
"'  c #69B869",
"]  c #6AB96A",
"[  c #6BB96B",
"{  c #6CB96D",
"}  c #6DBA6E",
"|  c #6EBA70",
" . c #6FBB71",
".. c #70BB72",
"X. c #71BB73",
"o. c #71BB74",
"O. c #71BD75",
"+. c #73BC76",
"@. c #73BC77",
"#. c #74BC77",
/* pixels */
"R R R R R ! o.+...W W R R R R R R R R R R R R R R R R R R R R R R R R R R R R R R R R R R R R R R R R R R R R R R R R R ",
"R R R R R ! o.+...( W W R R R R R R R R R R R R R R R R R R R R R R R R R R R R R R R R R R R R R R R R R R R R R R R R ",
"R R R R W W ....} W R R R R R R R R R R R R R R R R R R R R R R R R R R R R R R R R R R R R R R R R R R R R R R R R R R ",
"R R R R R R W W W R R R R R R R R R R R R R R R R R R R R R R R R R R R R R R R R R R R R R R R R R R R R R R R R R R R ",
"R R R R R R R R W R R R R R R R R R R R R R R R R R R R R R R R R R R R R R R R R R R R R R R R R R R R R R R R R R R R ",
"R R R R R W ! ! W R R R R R R R R R R R R R R R R R R R R R R R R R R R R R R R R R R R R R R R R R R R R R R R R R R R ",
"R R R R W ` o.+.} W R R R R R R R R R R R R R R R R R R R R R R R R R R R R W W R R R R R R R R R R R R R R R R R R R R ",
"R R R R W ` +.+.} R R R R R R R R R R R R R R R R R R R R R R R R R R R R R ~ P R R R R R R R R R R R R R R R R R R R R ",
"R R R R R _ ....} W W P R R R R R R R R R R R R R R R R R R R R R R R R R R W ~ R R R R R R R R R R R R R R R R R R R R ",
"R R R R R W W / W W R R R R R R R R R R R R R R R R R R R R R R R R R R R R U W R R R R R R R R R R R R R R R R R R R R ",
"R R R R R R R R R R R R R R R R R R R R R R R R R R R R R R R R R R R R R R R U R R R R R R R R R R R R R R R R R R R R ",
"R R R R R R R R R R R R R R R R R R R R R R R R R R R R R R R R R R R R R R R ! R R R R R R R R R R R R R R R R R R R R ",
"R R R R R R R R R R R R R R R R R R R R W R R R R R R R R R R R R R R R R R ` +.o.` R R R R R R R R R R R R R R R R R R ",
"R R R R R R R R R R W W R R R R R R R R W W R R R R R ~ R R R R R R R R R R } +.@.{ R R R R R R R R R R R R R R R R R R ",
"R R R R R R R R R ( ~ W R R R R R R R R W W ~ ( R R L L R L R R R R R R R R ` @.+.{ R R R R R R R R R R R R R R R R R R ",
"R R R R R R R R ( ....} R R R R R R R R ( +...( L L P P P P P P P W P R U R R ! ~ Q R R R R R R R R R R R R R R R R R R ",
"R R R R R W W W ` +.o.| R R R R R R R R ] O.I y y y q 7 7 7 7 7 7 w r r y y y i V R R R R R R R R R R R R R R R R R R R ",
"R R R R R W W W ` o.o.{ R R R R R R R R `  .A f a s < , , , > , > 5 d d p d d a z ~ R R R R R R R R R R R R R R R R R R ",
"R R R R R ` o.o.| ! R R R R R R R R R ~ / ( n f f s < , , , , , , 6 a a d d d d n ~ ~ ~ ~ ~ ~ ~ R R R R R R R R R R R R ",
"R R R R R ` +.@.| R R R R R R L G D D B x x t 6 6 5 : ; - - - - = 3 p 5 6 6 6 6 u V M c x k x H R R R R R R R R R R R R ",
"R R R R R ` o.o.} R R R R R ~ D h h h 3 : < , , > > $ @ @ @ @ @ @ = , , , , , > 4 p f 6 , , < k ~ R R R W R R R R R R R ",
"R R R R R R ! ! R R R R R R ~ V f f p < : > > , > > $ @ @ @ @ @ @ * , , , , > > 5 f s 6 , , , k ~ W R R W ` } } ~ R R R ",
"R R R R R R R R R R R R R P R c f p 6 < > , > > > > $ @ @ @ @ @ @ * > > > > > > 5 p f 6 < , , k ~ R R R R | +.+.( R R R ",
"R R R R R R R R R R R R i r r 9 < < < , , , ; $ $ $ + X X X X o . @ $ $ $ $ $ $ ; < < 1 6 6 6 n / R R R R ..+.+.( R R R ",
"R R R R R R R R R R R L r p s 6 > , , , , , * @ @ @ X . . . . . . + @ @ @ @ @ @ - , > < p f s n ~ P R R R ` ` } } { ` ( ",
"R R R R R R R R R R R P r p s 6 > , > > > > = @ @ @ X . . . . . . O @ @ @ @ @ @ * , > < p f p n ~ ~ R R R R R R  .+.+.( ",
"R R R R R R R R R R ~ R r p s 6 > > > - = = $ # @ @ . .   . .     O + + + @ @ @ * > > < f f d n ~ R R R R R R W | +.+.( ",
"R R R R R R R R R R R P r p s 6 , , > $ @ @ @ @ @ @ X . . .   .         . @ @ @ - > > < s s p n ~ R R R R R R W | +.+.( ",
"R R R R R R R R R R R R y a g 6 , > > $ @ @ @ @ @ @ X . .   . . . .   . . @ @ @ - > , 1 s s p c ~ R R R R R R W | +.+.( ",
"R R R R R R R R R R R P r d a 6 > > > $ @ @ @ @ @ @ X .   . .       . . o @ @ @ - > , < s d f n ~ R R R R R R W | +.+.( ",
"R R R R R R R R R R R P r s g 4 $ $ $ * : : & @ @ @ X .   . .     O + + # ; - ; 2 6 6 p s f f c ~ R R R R R R R ` } } / ",
"R R R R R R R R R R R P r s a 2 @ @ @ : , , = @ @ @ .   . .   . . O @ @ $ , > > 6 f s s s s f n ~ R R R R R R R R R R R ",
"R R R R R R R R R R R R r s s 4 @ @ @ - , , * @ @ @ o . . . . . . + @ @ @ , , , 2 d g g g g g n ~ R R R R R R R R R R R ",
"R R R R R R R R R R R U r s s 4 % % & > , , - $ $ $ O o o o . o o # % $ & , , , < p 2 a a g p c ~ R R R R R R R R R R R ",
"R R R R R R R R R R R R r s f 6 , , , , , , > > > > $ @ @ @ @ @ @ - , > > > , , , , , < p g f v ~ R R R R R R R R R R R ",
"R R R R R R R R R R R R r s f 6 , , , , > , , , > , $ @ @ @ @ @ @ - , , > , > , , , , < s p g c ~ R R R R R R R R R R R ",
"R R R R R R R R R R R R r s s 6 , , , < , , , , > , % @ @ @ @ @ @ - , , , , > , , > , < s a f n ~ P ~ R R R R R R R R R ",
"R R R R R R R R R R R R V z Z i p 2 2 2 2 5 2 > > > : - - - - - - > , , , , , , 2 6 5 0 n z n J ~ R R R R R R R R R R R ",
"W R R R R R R R R R R R R R ! S g g g g f g 5 > > , , , > , , , , , , , , > , , 5 g a j _ ~ ~ ~ R R R R R R R R R R R R ",
"W R R R R R R R R R R R R W R M g g a a d g 5 , > , > , > > , , , , , , , , , > 2 s a y / ~ P ~ R R R R R R R R R R R R ",
"! R R R R R R R R R R R R R R C r e e e e e 8 < 1 1 : 1 , , , , , , , , , < < < 0 j r l P ~ ~ P R R R R R R R R R R R R ",
"R R R R R R R R R R R R R R R R P P L L P P c p p p 1 , , , > , , , , : < p p p m _ P P ~ P W ~ R R R R R R R R R R R R ",
"R R R R R R R R R R R R R R R R R R R R ~ ~ M f p p 1 : > , , , , , : , < p f g z / / P R R R R R R R R R R R R R R R R ",
"R R R R R R R R R R R R R R R R R R R R R ~ V h h f 3 , , 1 , < 1 , 1 , 1 p f f n / P / R R R R R R R R R R R R R R R R ",
"R R R R R R R R R R R R R R R R R R R R R R P D D D N N N x N x x N x x x V V D P R R R R R R R R R R R R R R R R R R R ",
"R R R R R R R R R R R R R R R R R R R R R ~ P ~ R ~ ~ P / R ~ / R P P ~ ~ ~ / ~ P R R R R R R R R R R R R R R R R R R R ",
"R R R R R R R R R R ! R R R R R R R R R R R ~ ~ P ~ P ~ R R R R ~ P ~ ~ R R R R R R R R R R R R R R R R R R R R R R R R ",
"R R R R R R R R ! ! ! ! R R R R R R R R R R P ~ ~ ~ P ~ R R R R ~ ~ ~ P R R R R R R R R R R R R R R R R R R R R R R R R ",
"R R R R R R R R ! o.o...W W R R R R R R R R R R R R R R R R R R P ~ ~ P ~ ~ L ~ R R R R R R R R R R W ( ~ W R R R R R R ",
"R R R R R R R R ! o.#.o.W W R R R R R R R R R R R R R R R R R R P ~ ~ P ~ P L ~ R R R R R R R R R R }  .| ( R R R R R R ",
"R R R R R R R R ! | ....! ! ! R R R R R R R R R R R R R R R R R ~ ~ ~ ~ R R ~ R R R R R R R R R R R | +.+.( R R R R R R ",
"R R R R R R R R R W ! ! ..o.o.W R R R R R R R R R R R R R R R R ~ P P ~ R R R R R R R R R R R R R R | +.+.` W R R R R R ",
"R R R R R R R R R R R ! o.#.o.W R R R R R R R R R R R R R R R W R R R R R R R R R R R R R R R R R R W ( ( }  . .( P ~ R ",
"R R R R R R R R R R R ! ..o.| W R R R R R R R R R R R R R R R W R R R R R R R R R R R R R R R R R R W R L } +.@.( ~ P ~ ",
"R R R R R R R R R R R R ! ! ! R R R R R R R R R R R R R R _ | | ( R R R R R R R R R R R R R R R R R R R ~  .+.+.( P R R ",
"R R R R R R R R R R R R R W R R R R R R R R R R R R R W W _ +.+.{ R R R R R R R R R R R R R R R R R R R R } +.+.( R W { ",
"R R R R R R W W W W R R R R R R R R R R R R R R R R R R R ' o.+._ R R R R R R R R R R R R R R R R R R R L  . .+.( R R | ",
"R R R R R W | ..| W R R R R R R R R R R R R R R R R R R W W ' _ / R R R R R R R R R R R R R R R R R R R ( | @.+.( R !  .",
"R R R R R ! o.@.o.! R R R R R R R R R R R R R R R R R R R R R R R R R R R R R R R R R R R R R R R R R R R ( ` ` W R R ( ",
"R R R R R ! o.o...! R R R R R W R R R R R R R R R R R R R R R R R R R R R R R R R R R R R R R R R R R R R R R R W R R R "
};
