/* XPM */
static char *result[] = {
/* columns rows colors chars-per-pixel */
"60 60 97 2 ",
"   c #7FB14C",
".  c #67B55E",
"X  c #6AB55E",
"o  c #74B355",
"O  c #79B251",
"+  c #72B45A",
"@  c #7CB65D",
"#  c #63B661",
"$  c #6AB662",
"%  c #67B866",
"&  c #68B867",
"*  c #6BB96C",
"=  c #76B661",
"-  c #78B661",
";  c #76B960",
":  c #7FB869",
">  c #6FBB71",
",  c #72BC75",
"<  c #AEA91F",
"1  c #B4A917",
"2  c #B9AE17",
"3  c #B3A719",
"4  c #B3A919",
"5  c #B9AE1C",
"6  c #BEB117",
"7  c #BCB11B",
"8  c #9DAC33",
"9  c #ACAA23",
"0  c #A3AA2B",
"q  c #AAAC29",
"w  c #B1AD23",
"e  c #B9AF21",
"r  c #AEB227",
"t  c #ACB12D",
"y  c #BCB221",
"u  c #A3AA30",
"i  c #ADB434",
"p  c #B3B736",
"a  c #BEB731",
"s  c #B1B837",
"d  c #B1B739",
"f  c #C0B51A",
"g  c #C5B918",
"h  c #C1B525",
"j  c #C5B827",
"k  c #C2B728",
"l  c #C4B829",
"z  c #C9BC2B",
"x  c #D3C719",
"c  c #D5CA1C",
"v  c #DBCE1B",
"b  c #DED21A",
"n  c #E2D51B",
"m  c #E5D91A",
"M  c #CEC221",
"N  c #CEC32E",
"B  c #D5C924",
"V  c #D6CA2F",
"C  c #CCC233",
"Z  c #CFC538",
"A  c #D5CB33",
"S  c #DACE33",
"D  c #D2C738",
"F  c #D6CB3C",
"G  c #D9CE3D",
"H  c #DCD134",
"J  c #DCD138",
"K  c #E1D42A",
"L  c #E6D929",
"P  c #E1D63B",
"I  c #E5DA3E",
"U  c #85AF46",
"Y  c #85AF4B",
"T  c #8DB54E",
"R  c #94B544",
"E  c #9CB842",
"W  c #95B64A",
"Q  c #9BB64A",
"!  c #96B849",
"~  c #80BB5E",
"^  c #A2B743",
"/  c #A4B945",
"(  c #CFC441",
")  c #CBC74B",
"_  c #CEC849",
"`  c #D1C643",
"'  c #D4C945",
"]  c #D9CE41",
"[  c #D6D240",
"{  c #DAD441",
"}  c #E6DB40",
"|  c #EBDF44",
" . c #EDE243",
".. c #F1E742",
"X. c #F5EA46",
"o. c #F6EB4B",
"O. c #F8ED4B",
/* pixels */
"# # # # # % , , > % # # # # # # # # # # # # # # # # # # # # # # # # # # # # # # # # # # # # # # # # # # # # # # # # # # ",
"# # # # # # , , > % # # # # # # # # # # # # # # # # # # # # # # # # # # # # # # # # # # # # # # # # # # # # # # # # # # ",
"# # # # # # * , * % # # # # # # # # # # # # # # # # # # # # # # # # # # # # # # # # # # # # # # # # # # # # # # # # # # ",
"# # # # # # # # # # # # # # # # # # # # # # # # # # # # # # # # # # # # # # # # # # # # # # # # # # # # # # # # # # # # ",
"# # # # # # # # # # # # # # # # # # # # # # # # # # # # # # # # # # # # # # # # # # # # # # # # # # # # # # # # # # # # ",
"# # # # # % % % % # # # # # # # # # # # # # # # # # # # # # # # # # # # # # # # # # # # # # # # # # # # # # # # # # # # ",
"# # # # # & , , * # # # # # # # # # # # # # # # # # # # # # # # # # # # # # # # # # # # # # # # # # # # # # # # # # # # ",
"# # # # # & , , * # # # # # # # # # # # # # # # # # # # # # # # # # # # # # # # # # # # # # # # # # # # # # # # # # # # ",
"# # # # # % > > * # # # # # # # # # # # # # # # # o o O o O O o   O o # # # # # # # # # # # # # # # # # # # # # # # # # ",
"# # # # . # # # % # # # # # . # # # # # # # # # . 8 1 1 1 < < 1 < < 0 . # # # # # # # # # # # # # # # # # # # # # # # # ",
"# # # # # # # # # # # # # # # # . # # # # # # # . 0 1 1 1 < 1 1 1 1 0 X # . # # # # # # # # # # # # # # # # # # # # # # ",
"# # # # # # # # # # # # # # # # # # # # # # X X o 0 1 1 4 5 5 1 2 2 r + . X # % # # # # # # # # # # # # # # # # # # # # ",
"# # . # # # # # # # # # # # # # # # # # # X 0 9 r B b b A ( ( V b b c 9 q u = , > * # # # # # # # # # # # # # # # # # # ",
"# # # # # # # # # # # # # # # # # # # # # + 9 1 1 b m m H ' ' H m m v 1 1 9 = , > > # # # # # # # # # # # # # # # # # # ",
"# # # # # # # # # % % % # # # # # # # . # + < 1 1 b m m S _ _ A m m v 2 1 9 @ > , * # # # # # # # # # # # # # # # # # # ",
"# # # # # # # # % > > * # # # # # # o 8 8 t c c c g f 7 ! ~ ~ E f f g c c x t 8 8 o # # # # # # # # # # # # # # # # # # ",
"# # # # # # # # & , , * # # # # # #   4 1 f n m n 2 3 3 O # #   4 4 2 n m n 6 1 3   # # # # # # # # . # # # # # # # # # ",
"# # # # # # % % * > , & # # # # # #   4 3 7 n m n f 4 4   # # U 4 4 5 n m n 7 4 4 Y # # # # # # # # # # # # # # # # # # ",
"# # # # # & , , > # # # # # # # # #   4 3 5 S S A W Y Y X # # + Y Y W A S S 5 1 <   # # # # # # # # # # # # # # # # # # ",
"# # # # # & , , > # # # # # # # # % O 4 4 e ` ' _ ; # # # # # # # # - ) ' ` e 1 1   # # # # # # # # # # # # # # # # # # ",
"# # . # # & > , * # # # # # # # # #   4 4 e ` ' ) @ # # # # # # # # ; ) ' ` e 4 1   # # # # # # # # # # # # # # # # # # ",
"# # # # # # % # # # # # # # # # # #   4 4 e ] ] ' Y O O X # # + O O T _ ] ` e 1 <   # # # # # # # # # # # * > > & # # # ",
"# # # # # # # # # # # # # # # # # # O 4 4 y P } J y 3 < O # # U 4 4 e F ] F e 1 1   . # # # # # # # # # # > , , & # # # ",
"# # # # # # # # # # # # # # # # # #   4 3 5 P } P y 3 3   # # U 1 4 e F ] F 5 4 1   # # # # # # # # # # # > , , & . # # ",
"# # . # # # # # # # # # # # # # # # O 0 q t G J J y 5 e T + ; R 7 6 7 Z D Z q q 0 O # # # # # # # # # # # % & & * * * & ",
"# # # # # # # # # # # # # # # # # # # . . o w 1 y Z F F _ ) ) A b n v 7 2 9 o # . . # # # # # # # # # # # # # # , , , & ",
"# # # # # # # # # # # # # # # # # # . # # + 9 3 5 D ] G ' ' ' J m m b 4 4 9 + # # # # # # # # # # # # # # # # # * , , & ",
"# # # # # # # # # # # # # # # # # # # # . X 0 < 9 Z F F ' ' ' J n n v 4 9 q @ # # # # # # # # # # # # # # # # # , , , * ",
"# # # # # # # # # # # # # # # # # # # # # . X o o t y 7 C ] ] C 2 f 9 @ : : & # # # # # # # # # # # # # # # # # * , , & ",
"# # # # # # # # # # # # # # . # # # # # # # . # . 0 4 4 N G ] l 3 4 q * , , & # # # # # # # # # # # # # # # # # > , , & ",
"# # # # # # # # # # # # # # # # # # # # # # # # . 0 1 4 C ] ] z 4 1 0 # % % . # # # # # # # # # # # # # # # # # % & % # ",
"# # # # # # # # # # # # # # # # # # # # # # # # . 0 4 4 M K K M 1 1 0 # # # # # # # # # # # # # # # # # # # # # # # # # ",
"# # # # # # # # # # # # # # # # # # # # # # # # . 0 4 4 x m m g 1 1 0 $ # # # # # # # # # # # # # # # # # # # # # # # # ",
"# # # # # # # # # # # # # # # # # # # # # # # # . 0 3 1 x m m x 1 1 q X # # # # # # # # # # # # # # # # # # # # # # # # ",
"# # # # # # # # # # # # # # # # # # # # # # # # . i 5 5 B L L x 4 4 0 . # # # # # # # # # # # # # # # # # # # # # # # # ",
"# # # # # # # # # # # # # # # # % & # # # # # # . i k l F } } N 3 4 0 . # # # # # # # # # # # # # # # # # # # # # # # # ",
"# # # # # # # # # # # # # # % > , > % # # # # # . d k l G I I N 3 3 0 * # . # # # & , , & # # # # # # # # # # # # # # # ",
"# # # # # # # # # # # # . # % > , > % # # # # # $ i h k A I I A y 7 p - o X # # # * , , > # # # # # # # # # # # # # # # ",
"# # # # # # # # # # # # # # % & * % # # # # . # . 0 1 1 A } I | X.X.} w 9 0 + # # * , , * # # # # # # # # # # # # # # # ",
"# # # # # # # # # # # # # # # # # # # # # # # # . q 1 4 A P I | o.o.| 2 3 < @ > , * # & # # # # # # # # # # # # # # # # ",
"# # # # # # # # # # # # # # # # # # # # # # # # . 0 4 4 A P I  .o.X.} w < q = , , * # # # # # # # # # # # # # # # # # # ",
"# # # # # # # # # # # # # # # # # # # # # # # # . s j y J ....H z C Z @ o + & > , * # # # # # # # # # # # # # # # # # # ",
"# # # # # # # # # # # # # # # # # . # # # # # # X s j l P ....H k k d $ # # # % & # # # # # # # # # # # # # # # # # # # ",
"# # # # # # # # # # # # # # # # # # # # # # # # $ s j j H ....H k l d # # # # # # # # # # # # # # # # # # # # # # # # # ",
"# # # # # # # # # # # # # # # # # # # # # # # # . s l l P X.X. .P } [ ^ Q Q $ # # # # # # # # # # # # # # # # # # # # # ",
"# # # # # # # # # # # # # # # # # # # # # # # # X s l l I O.o.O.O.O. .z l a @ # # # # # # # # # # # # # # # # # # # # # ",
"# # # # # # # # # # # # # # # # # # # # . # # # $ p l l I O.o.o.o.o. .z l k + # # # # # # # # # # # # # # # # # # # # # ",
"# # # # # # # # # % % # # # # # # # # # # # # # # ! ^ ^ ' } } I I | { / ^ ^ X # # # # # # # # # # # # # # # # # # # # # ",
"# # # # # # # # % > , > # # # # # # # # # # # # # # # # Q l l l l j s $ # # # # # # # # # # # # # # % # # # # # # # # # ",
"# # # # # # # # # , , , % # # # # # # # # # # # # # # # ^ l j l j j s X # # # # # # # # # # # # # # > > , % # # # # # # ",
"# # # # # # # # & > > * & # # # # # # # # # # # # # # # W p p p p p / . # # # # # # # # # # # # # # % , , * # # # # # # ",
"# # # # # # # # # # # % , , , # # # # # # # # # # # # # $ X $ X X $ X # # # # # # # # # # # # # # # * > , & # # # # # # ",
"# # # # # # # # # # # % , , > # . # # # # # # # # # # # # # # # # # # # # # # # # # # # # # # # # # % % % * > > % # # # ",
"# # # # # # # # # # # # > , > # # # # # # # # # # # # # # # # # # # # # # # # . # # # # # # # # # # # # # > , , & # # # ",
"# # # # # # # # # # # # % % % # # # # # # # # # # # # # # % > > & # # # # # # # # # # # # # # # # # # # % > , , & # # # ",
"# # # # # # # # # # # # # # # . # # # # # # # # # # # # # & , , * # # # # # # # # # # # # # # # # # # # # > , , % # # & ",
"# # # # # # # # # # # # # # # # # # # # # # # # # # # # # % > , * # # # # # # # # # # # # # # # # # # # # * , , * # # > ",
"# # # # # % * , > # # # # # # # # # # # # # # # # # # # # . & & % # # # . # # # # # # # # # # # . # # # # > , , & # # > ",
"# # # # # # > , , # # # # # # # # # # # # # # # # # # # # # # # # # # # # # # # # # # # # # # # # # # # # % & % % # # % ",
"# # # # # # , * , % # # # # # # # # # # # # # # # # # # # # # # # # # # # # # # # # # # # . # # # # # # # # # # # # # # "
};
