/* XPM */
static char *result[] = {
/* columns rows colors chars-per-pixel */
"60 60 151 2 ",
"   c #030405",
".  c #0C0C0D",
"X  c #1B1B1C",
"o  c #232324",
"O  c #2A2A2B",
"+  c #7F6E5D",
"@  c #666466",
"#  c #6B6666",
"$  c #6C6866",
"%  c #676669",
"&  c #696669",
"*  c #666B6E",
"=  c #6A6A6B",
"-  c #706766",
";  c #7B6E63",
":  c #716E6E",
">  c #67706D",
",  c #69726C",
"<  c #687D6B",
"1  c #7E7064",
"2  c #7C7469",
"3  c #666E72",
"4  c #686E71",
"5  c #667272",
"6  c #697572",
"7  c #627D76",
"8  c #607978",
"9  c #757373",
"0  c #797677",
"q  c #806F5E",
"w  c #8E735D",
"e  c #90765C",
"r  c #816E60",
"t  c #867365",
"y  c #847E6A",
"u  c #9B7D64",
"i  c #847A71",
"p  c #5F8576",
"a  c #66836D",
"s  c #69866B",
"d  c #648B6C",
"f  c #6B8A6B",
"g  c #679367",
"h  c #669E66",
"j  c #64976C",
"k  c #629B6D",
"l  c #73926A",
"z  c #648572",
"x  c #6A8777",
"c  c #638B71",
"v  c #7C867C",
"b  c #619572",
"n  c #659B71",
"m  c #699972",
"M  c #66967C",
"N  c #769177",
"B  c #719972",
"V  c #79997A",
"C  c #65A466",
"Z  c #64AA65",
"A  c #62A56B",
"S  c #68A56A",
"D  c #62A96A",
"F  c #63B661",
"G  c #64B863",
"H  c #68B867",
"J  c #6DB36F",
"K  c #6BB96B",
"L  c #64A971",
"P  c #6EB571",
"I  c #6FBA70",
"U  c #72BC75",
"Y  c #808A7F",
"T  c #A38F6D",
"R  c #AD8C68",
"E  c #BD8C62",
"W  c #BF936D",
"Q  c #A38974",
"!  c #AC8E77",
"~  c #B39771",
"^  c #BA9678",
"/  c #C3956E",
"(  c #CD9768",
")  c #D59B6B",
"_  c #C39670",
"`  c #C39A79",
"'  c #DCA06B",
"]  c #DDA574",
"[  c #E6A46B",
"{  c #E9A569",
"}  c #EFA96C",
"|  c #F8AF6F",
" . c #F9B16F",
".. c #E5A771",
"X. c #EEAD74",
"o. c #F1B076",
"O. c #F9B171",
"+. c #F5B47B",
"@. c #F8B77E",
"#. c #749484",
"$. c #739B80",
"%. c #848283",
"&. c #868E84",
"*. c #8B8987",
"=. c #8A8989",
"-. c #9A8C82",
";. c #879387",
":. c #8F9B8E",
">. c #9B9A9A",
",. c #A19281",
"<. c #B49B87",
"1. c #86A48E",
"2. c #8AA58D",
"3. c #82A88B",
"4. c #93A091",
"5. c #99A197",
"6. c #B6A495",
"7. c #9FA8A1",
"8. c #A3A3A3",
"9. c #A9A5A5",
"0. c #A6ACA4",
"q. c #AAADA6",
"w. c #AEADAD",
"e. c #ACB4AA",
"r. c #ABB9AD",
"t. c #B1B2AE",
"y. c #B7B3B2",
"u. c #BDBCBC",
"i. c #E4B38B",
"p. c #F5BB89",
"a. c #EEBB91",
"s. c #C0BCBC",
"d. c #C4C3C3",
"f. c #CBCAC7",
"g. c #C6CAC8",
"h. c #CBCAC9",
"j. c #D1CDCC",
"k. c #D5D4D4",
"l. c #DBD7D7",
"z. c #D6D8D5",
"x. c #DBD9D9",
"c. c #E1DFDE",
"v. c #E2E0DF",
"b. c #ECE4DE",
"n. c #E5E4E4",
"m. c #ECEBEB",
"M. c #F9ECE1",
"N. c #F0EFEF",
"B. c #FCF2E6",
"V. c #F5F5F5",
"C. c #FFFFFF",
/* pixels */
"F F F F F G U U U G F F F F F F F F F F F F F F F F F F F F F F F F F F F F F F F F F F F F F F F F F F F F F F F F F F ",
"F F F F F G U U U G F F F F F F F F F F F F F F F F F F F F F F F F F F F F F F F F F F F F F F F F F F F F F F F F F F ",
"F F F F F G I U I G F F F F F F F F F F F F F F F F F F F F F F F F F F F F F F F F F F F F F F F F F F F F F F F F F F ",
"F F F F F F F F G F F F F F F F F F F F F F F F F F F F F F F F F F F F F F F F F F F F F F F F F F F F F F F F F F F F ",
"F F F F F F F F F F F F F F F F F F F F F F G G F F F F F F F F F F F F F F F F F F F F F F F F F F F F F F F F F F F F ",
"F F F F F F G G G F F F F F F F F F F F A C S S A D A F F F F F F F F F F F F F F F F F F F F F F F F F F F F F F F F F ",
"F F F F G H U U K F F F F F F F F F F h > , 5 5 > > > A F F F F F F F F F F F F F F F F F F F F F F F F F F F F F F F F ",
"F F F F F J U U K F F F F F F F F F F h * = = = = * * A F F F F F F F F F F F F F F F F F F F F F F F F F F F F F F F F ",
"F F F F F G I P I F F F F F F F G j d 2.g.f.f.f.g.f.g.3.d b F F F F F F F F F F F F F F F F F F F F F F F F F F F F F F ",
"F F F F F F G G G F F F F F F F Z , % 8.C.C.C.C.C.C.C.8.@ 8 D F F F F F F F F F F F F F F F F F F F F F F F F F F F F F ",
"F F F F F F F F F F F F F F F D S y t 6.M.B.C.C.V.z.k.8.%.#.D D F F F F F F F F F F F F F F F F F F F F F F F F F F F F ",
"F F F F F F F F F F F F F F C > 2 ' } o.p.p.M.C.d.o X 8.V.x.x 8 k F F F F F F F F F F F F F F F F F F F F F F F F F F F ",
"F F F F F F F F F F F F F F h & r [  . .| +.M.C.u..   8.C.m.0 & k F F F F F K I K K G F F F F F F F F F F F F F F F F F ",
"F F F F F F F F F F F F F F g $ q [ O.O.| +.M.C.u..   8.C.n.0 * b G F F F F K U I K F F F F F F F F F F F F F F F F F F ",
"F F F F F F F F F G G F F G g # + [ O.| | +.M.C.u..   8.C.n.0 & b F F F F F K U U K F F F F F F F F F F F F F F F F F F ",
"F F F F F F F F H I U J F Z l 1 w { O.| | +.M.C.g.O o w.C.n.0 * b F F F F F G G G G F F F F F F F F F F F F F F F F F F ",
"F F F F F F F F H U U J a , R ..{ | | O.| +.M.C.V.x.x.V.C.n.0 * b F F F F F F F F F F F F F F F F F F F F F F F F F F F ",
"F F F F F F F F H U U J < # E  . .O.O.O.O.@.M.C.C.C.C.C.C.n.0 * b F F F F F F F F F F F F F F F F F F F F F F F F F F F ",
"F F F F F J U U K H G Z , $ u / / _ _ _ / ` b.C.C.C.C.V.m.l.0 & b F F F F F F F F F F F F F F F F F F F F F F F F F F F ",
"F F F F F H U U K G F F , # $ $ $ $ $ $ $ : l.C.C.C.C.v.j.s.9 & b F F F F F F F F F F F F F F F F F F F F F F F F F F F ",
"F F F F F H U U K G F F < , , > > , 4 * = : z.C.C.C.C.c.j.s.9 4 b G G F F F F F F F F F F F F F F F F F F F F F F F F F ",
"F F F F F F G F H G F F Z Z Z Z D D A g = : s.c.k.l.l.k.j.s.9 * b F F F F F F F F F F F F F F F F F F F F H P K H F F F ",
"F F F F F F F F F F F F F F F F F F G h $ = y.j.j.j.j.j.j.s.9 % b F F F F F F F F F F F F F F F F F F F F I U U H F F F ",
"F F F F F F F F F F F F F F F F F F G h & : y.j.j.j.j.j.j.s.9 & b G F F F F F F F F F F F Z D D A A F F F I U U H F F F ",
"F F F F F F F F F F F F F F F F F F F h $ : y.j.j.h.h.j.j.s.9 & M U I K G G F F F F F F F d * * * 3 k F F H K K K K K G ",
"F F F F F F F F F F F F F F F F F F F h $ : y.j.j.j.j.j.j.s.0 = M U U K F G F F F F F G F f : * $ * k F F F F G I U U H ",
"F F F F F F F F F F F F F F F F F F G h = : y.j.j.j.j.j.j.h.t.e.1.x x z a a z z z z z z d r.j.u.6 * k F F F F F I U U K ",
"F F F F F F F F F F F F F F F F F F G h = = y.j.j.j.j.j.j.j.j.j.5.@ % * * @ % & # & & & = j.C.n.9 & k G F F F F I U U H ",
"F F F F F F F F F F F F F F F F F F F h = : u.l.l.k.l.z.l.l.l.l.y.=.=.=.=.=.*.=.=.*.*.*.=.z.C.c.9 % k F F F F F I U U H ",
"F F F F F F F F F F F F F F F F F F G h = : z.C.C.C.C.C.C.C.V.C.V.V.V.V.V.V.V.V.V.V.V.V.V.C.C.n.9 * k F F F F F I U U K ",
"F F F F F F F F F F F F F F F F F F F h = : z.C.C.C.C.C.C.C.C.C.C.C.C.C.C.C.C.C.C.C.C.C.C.C.C.v.9 4 k F F F F F H P H F ",
"F F F F F F F F F F F F F F F F F F F h = : l.C.C.C.C.C.C.C.C.C.C.C.C.C.C.C.C.C.C.C.C.C.C.g.w.7.n k Z F F F F F F F F F ",
"F F F F F F F F F F F F F F F F F F F C $ : x.C.C.C.C.C.C.C.C.C.C.C.C.C.C.C.C.C.C.C.C.C.C.>.@ 7 F F F F F F F F F F F F ",
"F F F F F F F F F F F F F F F F F F F C = : x.C.C.C.C.C.C.C.C.C.C.C.C.C.C.C.C.C.C.C.C.V.V.>.# 7 F F F F F F F F F F F F ",
"F F F F F F F F F F F F F F F F F F F h $ : x.C.C.C.C.C.C.C.C.C.C.C.C.C.C.C.C.C.C.C.V.z.k.=.& 7 F F F F F F F F F F F F ",
"F F F F F F F F F F F F F F F F H H F h & : x.C.C.C.C.C.C.C.C.C.C.C.C.C.C.C.C.C.C.C.V.j.h.;.% z Z F F F F F F F F F F F ",
"F F F F F F F F F F F F F F F I U U G h = : f.m.N.C.C.C.C.C.C.C.C.C.C.C.C.V.m.m.m.m.z.0.7.$.c k F F F F F F F F F F F F ",
"F F F F F F F F F F F F F F H I U I G C = = y.j.x.C.C.C.C.C.C.C.C.C.C.C.C.m.j.j.j.j.r., 4 A G G F F F F F F F F F F F F ",
"F F F F F F F F F F F F F F G K K J G C , , e.f.z.V.C.C.C.C.C.C.C.C.C.C.C.m.j.j.h.h.r.5 8 A F F F F F F F F F F F F F F ",
"F F F F F F F F F F F F F F G G F F F G Z D N v 4.z.x.l.z.l.z.l.z.l.z.l.z.k.j.h.:.v #.D D F F F F F F F F F F F F F F F ",
"F F F F F F F F F F F F F F F F F F F F F F a @ Y f.j.j.j.j.j.j.j.h.j.j.h.j.j.h.v & p G F F F F F F F F F F F F F F F F ",
"F F F F F F F F F F F F F F F F F F F F F F k a V e.t.d.j.j.j.j.j.j.j.j.j.d.y.e.#.x k F F F F F F F F F F F F F F F F F ",
"F F F F F F F F F F F F F F F F F F F F F F F F C , = q.j.j.j.j.j.j.j.j.j.9.= 6 L G F F F F F F F F F F F F F F F F F F ",
"F F F F F F F F F F F F F F F F F F F F F F F F Z , = 0.j.h.j.j.j.h.j.j.j.9.= 3 D G F F F F F F F F F F F F F F F F F F ",
"F F F F F F F F F F F F F F F F F F F F F F F F G C A V &.,.i.a.<.*.-.i.a.<.& 4 D F F F F F F F F F F F F F F F F F F F ",
"F F F F F F F F F F F F F F F F F F F F F F F F G F F s % w } O.! $ q [ O.^ = 5 A F F F F F F F F F F F F F F F F F F F ",
"F F F F F F F F F F F F F F F F F F F F F F F F F F F s & w } +.! % q [ O.^ % 3 D F F F F F F F F F F F F F F F F F F F ",
"F F F F F F F F F G G F F F F F F F F F F F F F F F F s # w } O.! % q [ O.^ * 5 D F F F F F F F F F F F F F F F F F F F ",
"F F F F F F F F F I U I H G F F F F F F F F F F F F F s $ e } O.! % r [ | ^ $ * D G F F F F F F F F G G G F F F F F F F ",
"F F F F F F F F H I U U G G F F F F F F F F F F F j x T W ( | O.! & r { | ../ ~ B c A F F F F F F F K I U H F F F F F F ",
"F F F F F F F F G P I P F F H F F F F F F F F F Z $ - ( O.O.O.O.! & r { O.O.O.X.i * c F F F F F F F K U U H F F F F F F ",
"F F F F F F F F F G H H I U I G F F F F F F F F Z , $ E ..[ ....Q $ ; ) ......] i & c F F F F F F F K U U H F F F F F F ",
"F F F F F F F F F F F H U U I G F F F F F F F F Z = $ ; 1 1 1 1 - = $ ; 1 1 1 1 $ & c F F F F F F F G H H I I I H F F F ",
"F F F F F F F F F F F F U U I F F F F F F F F F Z = & & = = & = = * & * * & & * & & c G F F F F F F G F F P U U H F F F ",
"F F F F F F F F F F F F H H H F F F F F F F F F F j j j k j V B m j j j j j j j k k C F F F F F F F F F G I U U H F F F ",
"F F F F F F F F F F F F F F F F F F F F F F F F F G G G G H U U K G G F G G F G F F F F F F F F F F F F F I U U H F F H ",
"F F F F F F F F F F F F F F F F F F F F F F F F F F F F F F I U K F F F F F F F F F F F F F F F F F F F F I I U K F G I ",
"F F F F F F I I I F F F F F F F F F F F F F F F F F F F F F K H H F F F F F F F F F F F F F F F F F F F F P U U K F F I ",
"F F F F F F I I U F F F F F F F F F F F F F F F F F F F F F F F F F F F F F F F F F F F F F F F F F F F F H K H G F F G ",
"F F F F F H I K U F F F F F F F F F F F F F F F F F F F F F F F F F F F F F F F F F F F F F F F F F F F F F F F F F F G "
};
