/* XPM */
static char *result[] = {
/* columns rows colors chars-per-pixel */
"60 60 159 2 ",
"   c #030405",
".  c #0C0C0D",
"X  c #1B1B1C",
"o  c #232324",
"O  c #2A2A2B",
"+  c #7F6E5D",
"@  c #666466",
"#  c #6B6666",
"$  c #6C6866",
"%  c #676669",
"&  c #696669",
"*  c #666B6E",
"=  c #6A6A6B",
"-  c #706766",
";  c #7B6E63",
":  c #716E6E",
">  c #67706D",
",  c #69726C",
"<  c #687D6B",
"1  c #7E7064",
"2  c #7C7469",
"3  c #666E72",
"4  c #686E71",
"5  c #667272",
"6  c #697572",
"7  c #627D76",
"8  c #607978",
"9  c #757373",
"0  c #797677",
"q  c #747F7A",
"w  c #806F5E",
"e  c #8E735D",
"r  c #90765C",
"t  c #816E60",
"y  c #867365",
"u  c #847E6A",
"i  c #9B7D64",
"p  c #847A71",
"a  c #5F8576",
"s  c #66836D",
"d  c #69866B",
"f  c #648B6C",
"g  c #6B8A6B",
"h  c #679367",
"j  c #669E66",
"k  c #64976C",
"l  c #689468",
"z  c #629B6D",
"x  c #73926A",
"c  c #648572",
"v  c #6A8777",
"b  c #638B71",
"n  c #688B73",
"m  c #7C867C",
"M  c #619572",
"N  c #659B71",
"B  c #699972",
"V  c #66967C",
"C  c #6B9A79",
"Z  c #769177",
"A  c #719972",
"S  c #75967D",
"D  c #79997A",
"F  c #65A466",
"G  c #64AA65",
"H  c #62A56B",
"J  c #68A56A",
"K  c #62A96A",
"L  c #63B661",
"P  c #64B863",
"I  c #68B867",
"U  c #6DB36F",
"Y  c #6BB96B",
"T  c #64A971",
"R  c #6EB571",
"E  c #6FBA70",
"W  c #72BC75",
"Q  c #A38F6D",
"!  c #AD8C68",
"~  c #BD8C62",
"^  c #BF936D",
"/  c #A38974",
"(  c #AC8E77",
")  c #B39771",
"_  c #BB9676",
"`  c #BA9678",
"'  c #CF9563",
"]  c #C3956E",
"[  c #CD9768",
"{  c #D59B6B",
"}  c #C39670",
"|  c #C39A79",
" . c #DCA06B",
".. c #DDA574",
"X. c #E6A46B",
"o. c #E9A569",
"O. c #EFA96C",
"+. c #F5AE6F",
"@. c #F8AF6F",
"#. c #F9B16F",
"$. c #E5A771",
"%. c #EEAD74",
"&. c #F1B076",
"*. c #F9B171",
"=. c #F5B47B",
"-. c #F8B77E",
";. c #749484",
":. c #739B80",
">. c #848283",
",. c #868E84",
"<. c #8B8987",
"1. c #8A8989",
"2. c #879387",
"3. c #8C928B",
"4. c #8F9B8E",
"5. c #9B9A9A",
"6. c #A19281",
"7. c #B49B87",
"8. c #86A48E",
"9. c #8AA58D",
"0. c #99A197",
"q. c #98AD9F",
"w. c #B6A495",
"e. c #9FA8A1",
"r. c #A3A3A3",
"t. c #A9A5A5",
"y. c #A6ACA4",
"u. c #AAADA6",
"i. c #AEADAD",
"p. c #ACB4AA",
"a. c #ABB9AD",
"s. c #B1B2AE",
"d. c #B1B8AF",
"f. c #B7B3B2",
"g. c #BDBCBC",
"h. c #E4B38B",
"j. c #F5BB89",
"k. c #EEBB91",
"l. c #F0BC91",
"z. c #C0BCBC",
"x. c #C4C3C3",
"c. c #CBCAC7",
"v. c #C6CAC8",
"b. c #CBCAC9",
"n. c #D1CDCC",
"m. c #D5D4D4",
"M. c #DBD7D7",
"N. c #D6D8D5",
"B. c #DBD8D7",
"V. c #DBD9D9",
"C. c #E1DFDE",
"Z. c #ECE4DE",
"A. c #E5E4E4",
"S. c #ECEBEB",
"D. c #F9ECE1",
"F. c #F0EFEF",
"G. c #FCF2E6",
"H. c #F5F5F5",
"J. c #FFFFFF",
/* pixels */
"L L L L L L L L L L L L L L L L L L L L L L L L L L L L L L L L L L L L L L L L L L L L L L L L L L P E W W I L L L L L ",
"L L L L L L L L L L L L L L L L L L L L L L L L L L L L L L L L L L L L L L L L L L L L L L L L L L P E W W P L L L L L ",
"L L L L L L L L L L L L L L L L L L L L L L L L L L L L L L L L L L L L L L L L L L L L L L L L L L L Y E R P L L L L L ",
"L L L L L L L L L L L L L L L L L L L L L L L L L L L L L L L L L L L L L L L L L L L L L L L L L L L L I L L L L L L L ",
"L L L L L L L L L L L L L L L L L L L L L L L L L L L L L L L L P P L L L L L L L L L L L L L L L L L L P L L L L L L L ",
"L L L L L L L L L L L L L L L L L L L L L L L L L L L L L L L L L H H K J K J K L L L L L L L L L L L L P L L L L L L L ",
"L L L L L L L L L L L L L L L L L L L L L L L L L L L L L L L L H 3 , > > 5 > > j L L L L L L L L L L E W W Y L L L L L ",
"L L L L L L L L L L L L L L L L L L L L L L L L L L L L L L L L H 4 : = = = = * j L L L L L L L L L P R W W I L L L L L ",
"L L L L L L L L L L L L L L L L L L L L L L L L L L L L L L f f :.b.b.c.b.b.v.c.9.f k L L L L L L L L Y W W I L L L L L ",
"L L L L L L L L L L L L L L L L L L L L L L L L L L L L L L 8 @ r.J.J.J.J.J.J.J.r.@ > L L L L L L L L P L P L L L L L L ",
"L L L L L L L L L L L L L L L L L L L L L L L L L L L L K K V q r.m.N.H.J.J.G.G.w.y u J L L L L L L L L L L L L L L L L ",
"L L L L L L L L L L L L L L L L L L L P I L L L L L L j 5 q N.H.r.X o v.J.D.j.-.&.%. .2 > z L L L L L L L L L L L L L L ",
"L L L L L L L L L L L L L L L L L L I W W I L L L L P M * 0 A.J.r.  . g.J.D.=.@.*.*.X.t = l L L L L L L L L L L L L L L ",
"L L L L L L L L L L L L L L L L L L Y W W I L L L L P M * 0 A.J.r.  . g.J.D.=.@.*.*.X.w $ k L L L L L L L L L L L L L L ",
"L L L L L L L L L L L L L L L L L L Y W W I L L L L L M = 0 A.J.r.  . g.J.D.=.+.@.@.X.+ $ h L L L P L L L L L L L L L L ",
"L L L L L L L L L L L L L L L L L L I I P L L L L L P M = 0 A.J.i.o O x.J.D.=.@.*.@.o.r 1 x G L Y W E I L L L L L L L L ",
"L L L L L L L L L L L L L L L L L L L L L L L L L L L z % 0 A.J.F.V.V.H.J.D.=.@.#.@.+.X.X.! < s R W W I L L L L L L L L ",
"L L L L L L L L L L L L L L L L L L L L L L L L L L L M % 0 A.J.J.J.J.J.J.D.-.*.*.*.*.*.#.~ # , U W W I P L L L L L L L ",
"L L L L L L L L L L L L L L L L L L L L L L L L L L L M % 0 N.S.H.J.J.J.J.Z.| ] } } ] ] ] i $ , G P P E W W I L L L L L ",
"L L L L L L L L L L L L L L L L L L L L L L L L L L L M * 0 g.n.C.J.J.J.J.V.: $ - $ $ $ $ $ $ , L P L E W W I L L L L L ",
"L L L L P P L L L L L L L L L L L L L L L L L L L L P M % 9 g.n.C.J.J.J.J.N.: = * 5 * > > > , s G L L E Y U I L L L L L ",
"L L L P Y R I L L L L L L L L L L L L L L L L L L L L M * 9 z.n.m.V.M.M.V.z.: $ l J K K G K G G L L L P L L L L L L L L ",
"L L L I W W Y L L L L L P L P L L L L L L L L L L L L M * 9 z.n.n.n.n.n.n.f.= $ j L L L P P P L L L L L L L L L L L L L ",
"L L L I W W R L L L H G F K G L L L L L L L L L P P I b * 9 z.n.n.n.n.n.n.f.: & j I L L L L L L L L L L L L L L L L L L ",
"P I Y Y Y Y I I L z 5 = > * f P L L L L L L L L Y E E V = 9 z.n.n.n.n.n.n.s.: = j L L L L L L L L L L L L L L L L L L L ",
"I W W E L L L L L z * & = = g L L L L L L L L P R W W V * 0 z.n.n.n.n.n.n.f.: = j L L L L L L L L L L L L L L L L L L L ",
"Y W W E L L L L L z * 9 g.m.a.n c c c c c c s c c v v 8.p.s.b.n.n.n.n.n.n.f.: $ j L L L L L L L L L L L L L L L L L L L ",
"I W W E L L L L L z & 9 A.J.b.$ & & % & & % & & % % % 0.n.n.n.n.n.b.n.n.n.f.: $ j L L L L L L L L L L L L L L L L L L L ",
"I W W E L L L L L z * 9 A.J.V.1.<.<.<.<.1.1.1.1.1.1.1.f.C.M.M.M.V.V.M.M.B.g.: $ j L L L L L L L L L L L L L L L L L L L ",
"I W W E L L L L L z % 9 V.J.J.H.H.H.H.H.H.H.H.H.H.H.H.H.J.H.J.J.H.J.J.J.J.N.: $ j L L L L L L L L L L L L L L L L L L L ",
"Y Y Y I L L L L L z * 0 A.J.J.J.J.J.J.J.J.J.J.J.J.J.J.J.J.J.J.J.J.J.J.J.J.B.: $ j L L L L L L L L L L L L L L L L L L L ",
"L L L L L L L L L K z N q.i.c.J.J.J.J.J.J.J.J.J.J.J.J.J.J.J.J.J.J.J.J.J.J.B., $ j L L L L L L L L L L L L L L L L L L L ",
"L L L L L L L L L L P L 8 % 5.J.J.J.J.J.J.J.J.J.J.J.J.J.J.J.J.J.J.J.J.J.J.V.: = j P L L L L L L L L L L L L L L L L L L ",
"L L L L L L L L L L L G 7 % 5.H.H.J.J.J.J.J.J.J.J.J.J.J.J.J.J.J.J.J.J.J.J.N.: = F L L L L L L L L L L L L L L L L L L L ",
"L L L L L L L L L L L L 7 * 3.m.N.H.J.J.J.J.J.J.J.J.J.J.J.J.J.J.J.J.J.J.J.V.: $ j L L L L L L L L L L L L L L L L L L L ",
"L L L L L L L L L L L L 7 % 2.b.n.H.J.J.J.J.J.J.J.J.J.J.J.J.J.J.J.J.J.J.J.V.: = j L I I I L L L L L L L L L L L L L L L ",
"L L L L L L L L L L L L z k S e.y.N.S.S.S.S.H.J.J.J.J.J.J.J.J.J.J.J.J.H.S.v.: = F P W W W L L L L L L L L L L L L L L L ",
"L L L L L L L L L L L L L L H * , d.m.b.n.n.S.J.J.J.J.J.J.J.J.J.J.J.J.V.n.f.: $ j P E W W P L L L L L L L L L L L L L L ",
"L L L L L L L L L L L L L L H 8 6 a.c.c.n.n.S.J.J.J.H.J.J.J.H.J.J.J.H.B.c.p., > F L Y E E L L L L L L L L L L L L L L L ",
"L L L L L L L L L L L L L L L K K ;.m 4.c.n.M.M.M.B.V.V.M.B.V.V.M.V.N.4.m Z K K L L L L L L L L L L L L L L L L L L L L ",
"L L L L L L L L L L L L L L L L P a % ;.b.n.n.n.n.n.n.n.b.n.n.n.n.n.c.m @ s L L L L L L L L L L L L L L L L L L L L L L ",
"L L L L L L L L L L L L L L L L L M c ;.i.s.x.n.c.n.n.n.n.n.n.n.x.s.p.S s h L L L L L L L L L L L L L L L L L L L L L L ",
"L L L L L L L L L L L L L L L L L L P T 5 = t.n.n.n.n.n.n.n.n.n.u., , F L L L L L L L L L L L L L L L L L L L L L L L L ",
"L L L L L L L L L L L L L L L L L L L K 4 $ t.n.n.n.c.n.n.n.n.n.y.= > G L L L L L L L L L L L L L L L L L L L L L L L L ",
"L L L L L L L L L L L L L L L L L L L K 4 & 7.l.h./ >.w.k.h.6.,.D F K L L L L L L L L L L L L L L L L L L L L L L L L L ",
"L L L L L L L L L L L L L L L L L L L K 4 & ` *.o.w @ ( =.O.e & g L L L L L L L L L L L L L L L L L L L L L L L L L L L ",
"L L L L L L L L L L L L L L L L L L L T 4 = ` *.X.t & ( *.O.e & d L L L L L L L L L L L L L L L L L L L L L L L L L L L ",
"L L L L L L L L L L L L L L L L L L L K 4 = ` *.X.w % ( *.O.e $ d L L L L L L L L L L L L L L L I L L L L L L L L L L L ",
"L L L L L L L L I L L L L L L L L L P K > $ _ *.X.w & ( *.O.e & d L L L L L L L L L L L L L L I E W E I L L L L L L L L ",
"L L L L L L L I E Y L L L L L L L H b A ) ^ ..*.o.t & ( *.+.[ ^ Q n k L L L L L L L L L L L L L W W W L L L L L L L L L ",
"L L L L L L I W W E L L L L L L L b * u &.#.*.*.o.w = ( *.*.*.*.' - $ G L L L L L L L L L L I I E W E L L L L L L L L L ",
"L L L L L L Y W W Y L L L L L L L a % p ..$.$.$.{ ; = / $.$.X.$.] # $ G L L L L L L L L L Y E E I P I L L L L L L L L L ",
"L L L I U E Y I P P L L L L L L L f & $ 1 ; 1 1 ; $ = - 2 ; 1 ; ; $ $ G L L L L L L L L P W W W L L L L L L L L L L L L ",
"L L L I W W E L L L L L L L L L L n * * * * = = = = = = = = = % * $ , G L L L L L L L L L E W E L L L L L L L L L L L L ",
"L L L I W W E L L L L L L L L L L H k k k k k k k k k B C C B k k k k G L L L L L L L L L I L L L L L L L L L L L L L L ",
"Y L P Y W W Y L L L L L L L L L L L P L P L L L P P P Y W W I P L L L L L L L L L L L L L L L L L L L L L L L L L L L L ",
"R L L I W W R L L L L L L L L L L L L L L L L L L L L Y W W Y L L L L L L L L L L L L L L L L L L L L L P L L L L L L L ",
"Y P P I W W E L L L L L L L L L L L L L L L L L L L L P I I L L L L L L L L L L L L L L L L L L L L P Y E Y L L L L L L ",
"I L L P Y Y I L L L L L L L L L L L L L L L L L L L L L L L L L L L L L L L L L L L L L L L L L L L I E W W P L L L L L ",
"L L L P L L L L L L L L L L L L L L L L L L L L L L L L L L L L L L L L L L L L L L L L L L L L L L P W W E I L L L L L "
};
