/* XPM */
static char *ca17c0ede89f4806ca64e86b77901138ALH0yR4fysHaSyUH[] = {
/* columns rows colors chars-per-pixel */
"60 60 19 1 ",
"  c #63B660",
". c #63B661",
"X c #64B663",
"o c #64B763",
"O c #65B763",
"+ c #66B765",
"@ c #67B766",
"# c #67B867",
"$ c #68B867",
"% c #68B868",
"& c #6BB96C",
"* c #6EBA6F",
"= c #6FBA71",
"- c #6FBB71",
"; c #71BB73",
": c #71BB74",
"> c #73BC76",
", c #73BC77",
"< c #74BC77",
/* pixels */
".....O;>>O..................................................",
".....O:>;+..................................................",
"......*;=+..................................................",
"......O.....................................................",
"............................................................",
".....O+++...................................................",
".....$;:*...................................................",
".....%:<=...................................................",
".....+:;*...................................................",
"......+O....................................................",
"............................................................",
".......................................+++..................",
"......................................%:=&..................",
".....................................+&<>&..................",
".........++.........OOO+..............%:>%..................",
"........#=;*........%;;%...............+++..................",
"........%::=........%<<*....................................",
"......O+%::*........%;:*....................................",
".....+::=+.O.........OOO....................................",
".....$>>*...................................................",
".....+::*...................................................",
".....O+OO...........................................O$*&O...",
".....................................................*>>#...",
"..................................+.................O*<>#...",
"................................%>:%.................$*%&&%#",
"................................%<<*...................O=>>%",
"................................%>:*O.O.................=>>#",
"................................+++%=;%O...............O=>;#",
"...................................&><&.................=>>#",
"...................................#::&................O=>>#",
"...................................O%+O.................%**+",
".....................................+......................",
"...............................+............................",
"............................O%;=%O..........................",
"................O............%>>*...........................",
"..............O%%%...........#>>&.O.......O.O...............",
"..............+;<;............++&=:%O....+;:%...............",
"..............+:<;O.............&:>&.....*:<*...............",
"O..............&*$.........OO...&<>&....+#:<%...............",
"O.........................%==&..%<>*..%;=*@++...............",
"+.........................#>>*..%>>&..$>>*..................",
".........................O$;>*..%>>&.O%>>%..................",
"...........................##O..#+#O...#++..................",
"............................................................",
"............................................................",
"............................................................",
"............................................................",
".........+++O...............................................",
".........=>>+......................................OO.......",
"........O=,>O.....................................*:=#......",
".........=;=#OO ..................................*><+......",
".........+.+=>=#..................................*:<%.O....",
"...........O:<:O..................................O#+*;=+...",
"...........O;:=O.....................................*>>#...",
"............OOO..............#*=%....................*>>%.OO",
".............................%><*....................*>>+..%",
"......O.O....................#>>%....................*>>#..=",
"......*==O....................#$+O...................=>>#.O*",
".....O;<:+...........................................+%%O..$",
"......;::+.....O......................................O....."
};
