/* XPM */
static char *_9a2f651a6394bcbe55d3a417d428fcfPe6pGZNuOLg6uOob[] = {
/* columns rows colors chars-per-pixel */
"60 60 120 2 ",
"   c #142F1D",
".  c #14311E",
"X  c #163522",
"o  c #173824",
"O  c #1A3C25",
"+  c #173F2F",
"@  c #1E4227",
"#  c #1E4429",
"$  c #1E4B2D",
"%  c #174132",
"&  c #194434",
"*  c #1D4B35",
"=  c #1D4E39",
"-  c #1F533E",
";  c #204529",
":  c #234A2C",
">  c #29522F",
",  c #214E35",
"<  c #235332",
"1  c #2C5732",
"2  c #255A36",
"3  c #295B35",
"4  c #22543B",
"5  c #285739",
"6  c #255C39",
"7  c #285D38",
"8  c #2C6037",
"9  c #26603E",
"0  c #2C643C",
"q  c #31683B",
"w  c #1F5540",
"e  c #205640",
"r  c #225B42",
"t  c #266545",
"y  c #286744",
"u  c #286A46",
"i  c #2A6D49",
"p  c #336E43",
"a  c #2C734B",
"s  c #2F794E",
"d  c #30764D",
"f  c #317A4F",
"g  c #357D51",
"h  c #387F52",
"j  c #417741",
"k  c #447D45",
"l  c #368454",
"z  c #3D8556",
"x  c #378B56",
"c  c #398E56",
"v  c #388E58",
"b  c #3B945A",
"n  c #3D995D",
"m  c #478146",
"M  c #498447",
"N  c #498548",
"B  c #4D8A4A",
"V  c #508F4D",
"C  c #4E914F",
"Z  c #51914E",
"A  c #408957",
"S  c #4E9551",
"D  c #42975C",
"F  c #429B5E",
"G  c #529751",
"H  c #559E55",
"J  c #57A056",
"K  c #58A257",
"L  c #5AA659",
"P  c #5DAA5B",
"I  c #60AE5D",
"U  c #62B25E",
"Y  c #429D60",
"T  c #449F61",
"R  c #45A061",
"E  c #46A162",
"W  c #47A262",
"Q  c #4BA564",
"!  c #4BA565",
"~  c #4DA765",
"^  c #5BAB6A",
"/  c #5BAC6A",
"(  c #5EB06C",
")  c #5EB06D",
"_  c #63B460",
"`  c #64B560",
"'  c #64B561",
"]  c #64B660",
"[  c #65B660",
"{  c #65B761",
"}  c #66B761",
"|  c #66B763",
" . c #66B764",
".. c #66B864",
"X. c #62B26E",
"o. c #62B36E",
"O. c #63B46F",
"+. c #6BBE6F",
"@. c #65B770",
"#. c #64B871",
"$. c #66B971",
"%. c #65BA71",
"&. c #66BB72",
"*. c #68BB73",
"=. c #6ABC73",
"-. c #6BBD73",
";. c #6CBF70",
":. c #68BD74",
">. c #6BBE74",
",. c #6ABF75",
"<. c #6BBF75",
"1. c #6DC072",
"2. c #6AC075",
"3. c #6BC075",
"4. c #6EC275",
"5. c #6EC277",
"6. c #6FC477",
"7. c #6FC378",
"8. c #70C477",
"9. c #70C478",
/* pixels */
"` ` ` ` ` ` ` ` ` ` ` ` ` ` ` ` ` ` ` ` ` ` ` ` ` ` ` ` ` ` ` ` { U { { U { U U } } U } U U } } U } { U { { U } { U } { ",
"` ` ` ` ` ` ` ` ` ` ` ` ` ` ` ` ` ` ` ` ` ` ` ` ` ` ` ` ` ` ` ` { U U { ..U ..U U } } U U U } U U { U { { U U { U { { U ",
"` ` ` ` ` ` ` ` ` ` ` ` ......` ` ` ` ` ` ` ` ` ` ` ` ` ` ` ` ` U { 1.U ` U ....U } } U U U { { } { U } U { { U U } } U ",
"` ` ` ` ` ` ` ` ` ` ` ` 7.9.1.` ` ` ` ` ` ` ` ` ` ` ` ` ` ` ` ` U U U U U { U U } U U ..U { { U U } { U } U { } { U { { ",
"` ` ` ` ` ` ` ` ` ` ` ..5.7.5.` ` ` ` ` ` ` ` ` ..U U U ` ` ` ` U U U U ` U ` U U } U } U } 1.{ U { } U { U } { U } U U ",
"` ` ` ` ` ` ` ` ` ` ` ..+.1.;...` ` ` ` ` ` ` U K J K H H J J J J J K J J J L U U } } } U } U } 1.U { { U { { U { } } { ",
"` ` ` ` ` ` ` ` ` ` ` ` ` ` ` ` ` ` ` ` ` ` ` L 3 < < < < < < < < < < < < < 8 P ..U U U } } U U { { { U U { { U } U U U ",
"` ` ` ` ` ` ` ` ` ` ` ` ` ` ` ` ` ` ` `  .` ..P > $ $ $ $ $ $ $ $ $ $ $ $ $ 3 P U 1.U } } U } } ] ] } U { } U { } U } U ",
"` ` ` ` ` ` ` ` ` ` ` ` ` ` ` ` U U K H H H J S 0 6 6 6 6 8 6 6 6 6 6 6 2 6 8 G H H J J L U U ` ] ] U U U } { U } { U } ",
"` ` ` ` ` ` ` ` ` ` ` ` ` ` ` ` U L 3 < < < < 3 c b b b b b b b b b n b b b c 2 < < < < 8 U U U ] ] U U { U U { { U U { ",
"` ` ` ` ` ` ` ` ` ` ` ` ` ` ` U ..L < $ $ $ $ < c n n n n n n n n n n n n n c < $ $ : $ 3 P U U } U U U } { { } U { { U ",
"` ` ` ` ` ` ` ` ` ` ` U J J K H J G 0 6 7 0 0 p R R W W R W R R W R R R W W F 0 2 2 < = 8 G K K U } U } U { U U } U { } ",
"` ` ` ` ` ` ` ` ` ` ` L 3 < < < < 6 c b F $.>.+.2.5.5.2.5.5.2.2.5.5.2.5.2.1.&.F b c i i u < < 7 U U { U { U U { { U U U ",
"` ` ` ` ` ` ` ` ` ` ` L < $ $ $ $ < b n R >.6.5.5.6.6.6.8.8.6.6.5.8.5.8.8.6.2.n n b a i i : $ 2 U U { U { { { } U { U ] ",
"` ` ` ` ` ` ` ` U K J S 7 < < 7 6 0 F R ~ 2.5.8.5.6.6.5.6.6.6.6.8.5.6.5.6.6.2.! R n s s i < $ 2 P U { { U { { U 1.] ] ] ",
"` ` ` ` ` ` ` ` L 3 < < u u a b b F <.1.5.5.8.5.8.5.5.6.5.6.6.6.5.8.5.6.5.6.6.6.1.2.F b c < $ 2 P U U { { U U { U { ] ] ",
"` ` ` ` ` ` ` { L < $ < u a a b n R 5.6.5.8.5.8.5.8.8.5.8.5.8.5.5.7.9.9.9.9.7.7.9.=.T n c < $ 7 P U U { U U U U } } U U ",
"` ` ` ` ` ` ` ` L < $ < u u s b n R >.6.8.5.8.5.8.5.5.8.5.8.5.8.7.@.o.o.o.o.@.>.7.>.! T D 6 < 3 H H K U U 1.U U U U U 1.",
"` ` ` ` ` ` ` { L < $ < u a a n n R 2.6.5.8.5.8.5.8.5.5.8.5.8.8.$.g a a a a h =.5.5.>.7.o.s u u < < 8 P U U ] U } U U U ",
"` ` ` ` ` ` ` { L < $ < u u a b n F 2.5.8.5.8.5.8.8.8.8.5.8.5.8.$.a i i y u g $.6.7.7.7.#.g u u $ $ 8 U } } { { } } U ..",
"` ` ` ` U U K J C 7 $ 2 a a l F R ~ 5.5.5.6.6.5.o.o.o.8.8.8.5.8.$.z g g f a l >.6.6.7.6.$.l a a - - 8 S K K U { U } } U ",
"` ` ` ` { L 3 < 3 t i a b b F >.5.5.5.8.8.5.8.O.g a h *.6.5.5.8.7.>.>.$.n b F 2.6.5.6.6.*.F b b a q q 2 $ 8 P U } U U } ",
"` ` ` ` ` L < $ $ u i a n n R 2.5.5.6.5.5.8.8.$.d u f *.8.5.8.5.6.5.6.>.R n T 2.6.9.9.9.>.R n b a i i < $ 2 U } { U } } ",
"` ` ` ` U P q 8 0 y u a b n F >.5.6.5.8.5.o.O.^ z h A >.5.8.5.8.7.6.6.$.F n T / o.o.$.$.) F n b a i i $ $ 8 P } U { } U ",
"` ` ` ` ` { U U H < * 6 c n F 5.5.8.5.9.$.g a g O.>.2.5.8.5.8.5.6.6.6.>.F n b a a s n n n n n b a i u < $ 2 P ] U } U } ",
"` ` ` ` ` ` { U L 2 $ 2 b n R 2.9.9.9.9.@.d i s >.8.5.7.5.8.5.8.4.6.6.2.F n b a i a b n n n n b a i u < $ - P ] U ..} U ",
"` ` ` ` U U H H B < * 6 b n F ) o.o.@.o.^ g a g o.$.>.7.5.8.8.5.1.o.( ( n n b s s s x b b c b c a i u $ # 2 L ] } U U } ",
"` ` ` ` U K ; o O - - r b n b f a a a a a b n n n F T >.8.5.8.8.1.s s s n n n n n c s i a a a i i i 0 @ . @ L ] } U } } ",
"U ....U ` J O . o - - t n n b a i i i i a b n n n n T >.8.9.9.9.%.s u a b n n n n b i i u u u i a a 8 . . @ K U U } } U ",
"U U U U ..K O . o w w t l x l s d a a a s b n n n n T $.$.$.o.o.Q l s s b n n n n b s s l i i i 0 9 9 > $ 3 I U } U U } ",
"..U U ....H ;   o u i i w w t v n b n b n n n n n n n n T b f a s b b n n n n n n n n b b i i u # . $ H U { U U } } } } ",
"..U U ..U K o . o u i i w w r n F n n F n n n n n n n n n b a i a b n n n n n n n n n n b a i u . . # P U U U ] U } U U ",
"U U U U U L ; . . q i i - - u x x b b n n x x x n n n n n b s s s b n n n n n n n n b b x a i u @ o $ C J H U U U U { U ",
"U 1.U U I K . . ; d i i i i i - r t b n b r r t b n n n n n b b n n n n n n n n n b a i a i i i i u u O o : I U { U { U ",
"U U ..U U I @ . O i i i i i i - w r b n b r w r b n n n n n n n n n n n n n n n n b a i i i i i i i u o . @ K U U U U U ",
"....U U U L . . o 0 i u i a i - r r c b l r w t b n n n n n b b v n n n n n n b x x a i i u u u u i 9 o . @ L U { U U 4.",
"U U } U } I O   @ - - - i i i i i i i a i i i a b n n n n b a i s b n n n n v r r r i i u r w w - t - o . @ U U { U U } ",
"U 1.U } U L O   o - - - i i i i i i i i i i i a b n n n n b a i a b n n n n b r w r u i u w w w - - - . . @ I } { { } } ",
"U } U } U I 1 : $ = - - i i i i i i u a i i i a x x b n n b s a s v v b b v x r w r t i r w w w $ = : : : 1 U U U ..U U ",
"U U } U U U I I G @ . o - - - i i i - w - i i u r w r b n n b n c r w r i a a i u u w w r w w w O . @ H I I U U { U U } ",
"} U } } U ....U J @ . o - - 4 a i u - w w u i i w w w b n n F F b r w r i i i i i i w w w w w = @ . # L U U U U U { { U ",
"} } U U U U U U J O . o - - - t i u w w w t u i r w t c b b c b z r e r t t t t u t w w w w w = . . # L U U U U { } U { ",
"U } U U ..U ....J O . o - w - - - 4 * % & w w w i i i a i a i i i i i t = + + w r w w w w w w = . . ; L U U U U U } U } ",
"} U U 1.U U U { J O . . - w - - - - % % & w w w i i i i i i i i i i i i & + + w w w w w w w w , .   ; L U 1.1.U U { { U ",
"} U } } ..U U U L : ; @ - - = - - = & & & - - w t i u u a u u i i u u t + + w w w w w w w w & = ; ; > L } U U U { { U { ",
"U } } U U U 1.U U M M j O . . % % * - - w - w w - w w - w w - w w e e w , w w w w w + & + . X O k M M I U } U 1.U } U { ",
"U } U } U { U U P Z B k o . . & & & w w w w w - w w w w - 4 - w w w w w w w w w w w + + + X   O M B G U } U { U U { { U ",
"} } U } U { U U U Z C M : @ @ < , * - = - = w = - w w w = - w - w w w w w = = w w , , , , @ @ : B Z G U } U U { } U { } ",
"U } } U } } U } U U U U V M M M M k * % % & & & - w - & % * w w = + & & + & & & # = k M M M k V I ` I ` ` ` ` ` { U { { ",
"U } U } } U U } U { } U B B B B B m * # % % % & w w - % & & w 4 w + + + + & + + + , k C B B B Z U U ` ` ` ` ` ` } U U } ",
"} } U } U } } U U } U U G Z Z Z S B 2 < = * = < 2 r 6 < * 4 r r e 4 , 4 , 4 w , < 2 V G Z Z Z G U ` ` ` ..` | ` U { { U ",
"U } } U } U } } } U { U U U U U U P M M N N N N M B B M M M M M N N k N N k B k k B I U U U U U ` ` ` _ U U | U { } U { ",
"} U U U } U } } { U { { U 6.{ U U I Z V B B B B V B B B B B B B B B B B V V B B B Z U U } U } U ` U ` | U ` ..U } { U } ",
"U { U U U } { U } U U } U U U U U U Z G S Z Z Z Z G Z Z Z Z Z G B Z Z Z V V V V G G U U } { U } ..U | ........U U { { U ",
"} { U U { U U 1.U { } } U } U { U U U U U U U U U U U U U U } U _ _ U U ` I ` I U U { U } U } U U U | +.8.;.U U { U U } ",
"} U ] { { { { { { } U U } U U } U } { U U U U U U } U } U U U } ` ` U  .` ` `  .{ { U { U } } } U ..| <.8.8.....} U { U ",
"U U { { U { U U { { U { U } } U } { U } { U { { U } { U } } U } ` ` ` ` U U ..U U U U U } U } U U U U 8.8.1.} U 1.U U } ",
"} { { U { } } { U } { 1.1.6.6.U U } } U { U U } { U U { U } } U _ ` _ ` U ..U ..U 1.U } U } U } } ..U U } U 8.8.1.U } U ",
"} U U } { U U { } U ] ] 6.6.6.{ U { { U U { { } { } } { } U 1.U U ..` ` U } U ..} U } U } } } U } U U U U U 8.8.8.} U } ",
"{ { U { U { } U { U U U 6.6.1.} { } U { { { U U U U { U U U U { ..U ` ` U U ..U } } U } U } U } U U U 1.1.U 1.8.1.} U } "
};
